<?xml version="1.0" standalone="no"?>
<!DOCTYPE svg PUBLIC "-//W3C//DTD SVG 20010904//EN"
 "http://www.w3.org/TR/2001/REC-SVG-20010904/DTD/svg10.dtd">
<svg version="1.0" xmlns="http://www.w3.org/2000/svg"
 width="260.000000pt" height="260.000000pt" viewBox="0 0 260.000000 260.000000"
 preserveAspectRatio="xMidYMid meet">
<metadata>
Created by potrace 1.14, written by Peter Selinger 2001-2017
</metadata>
<g transform="translate(0.000000,260.000000) scale(0.100000,-0.100000)"
fill="#000000" stroke="none">
<path d="M310 2411 c-69 -21 -121 -65 -156 -131 -18 -33 -19 -77 -19 -985 0
-908 1 -952 19 -985 26 -49 64 -88 111 -113 l40 -22 1000 0 1000 0 40 22 c47
25 85 64 111 113 18 33 19 77 19 985 l0 950 -22 40 c-25 47 -64 85 -113 111
-33 18 -80 19 -1020 21 -542 1 -996 -2 -1010 -6z m2025 -30 c22 -10 52 -31 67
-47 51 -54 58 -89 58 -268 l0 -165 -27 4 c-16 2 -81 7 -146 10 -166 8 -167 9
-167 92 -1 77 -13 150 -27 164 -12 12 -43 1 -43 -15 0 -14 -63 -138 -101 -198
-26 -40 -31 -60 -36 -137 -8 -116 11 -124 21 -9 5 55 13 93 26 113 11 16 42
74 69 127 57 112 60 111 68 -35 7 -120 -2 -114 188 -123 74 -4 135 -11 135
-15 0 -18 -272 -169 -304 -169 -24 0 -11 16 37 47 41 26 66 50 67 66 0 12 -45
8 -84 -8 -32 -14 -36 -14 -36 0 0 20 -6 19 -32 -7 l-23 -23 -5 83 c-3 45 -8
82 -12 82 -5 0 -12 0 -17 0 -21 0 -34 -62 -27 -131 5 -57 3 -71 -9 -75 -8 -4
-15 -11 -15 -16 0 -10 -233 -266 -316 -348 l-46 -45 7 40 c3 22 9 99 11 171 6
128 5 132 -26 225 -39 112 -60 155 -97 199 -59 70 -168 91 -236 45 -44 -30
-57 -54 -103 -188 -20 -56 -49 -126 -65 -156 -17 -29 -28 -56 -25 -59 9 -8
-14 -32 -31 -32 -11 0 -13 7 -8 30 4 18 2 36 -4 44 -7 8 -7 23 -1 47 14 49 12
66 -9 72 -14 3 -17 11 -14 31 7 35 -9 33 -31 -5 -19 -33 -35 -34 -17 -1 34 64
-4 53 -64 -18 -27 -33 -51 -58 -53 -56 -2 2 10 31 27 65 56 110 38 120 -45 26
-56 -63 -58 -64 -69 -42 -7 13 -8 31 -3 45 10 30 10 72 0 72 -5 0 -17 -9 -27
-20 -21 -24 -65 -27 -65 -5 0 8 -4 15 -9 15 -14 0 -171 -173 -171 -187 0 -19
24 -16 53 7 14 11 27 20 30 20 2 0 0 -21 -4 -47 -7 -34 -6 -49 3 -54 9 -6 7
-19 -10 -55 -33 -66 -15 -77 41 -25 24 23 47 41 50 41 3 0 -8 -23 -25 -50 -24
-39 -29 -53 -20 -62 9 -9 19 -6 43 11 32 24 32 19 -3 -32 -17 -24 -17 -28 -4
-33 8 -3 30 5 48 17 l32 24 -22 -36 c-40 -65 -24 -78 38 -29 21 17 40 30 44
30 3 0 -8 -20 -24 -44 -34 -50 -39 -79 -12 -74 9 1 22 0 27 -4 6 -4 30 7 54
23 25 16 46 28 48 26 2 -2 -7 -22 -19 -45 -26 -46 -20 -61 18 -43 l26 12 -26
-44 c-35 -62 -20 -76 33 -31 24 20 31 22 31 10 0 -21 18 -20 44 2 19 16 18 15
-2 -19 -12 -20 -22 -41 -22 -48 0 -17 31 -13 68 9 41 25 45 25 32 1 -15 -30
-13 -34 19 -29 20 3 27 0 24 -8 -7 -20 15 -26 52 -14 29 10 38 9 51 -4 14 -15
14 -19 -5 -50 -12 -18 -21 -45 -21 -58 0 -14 -9 -33 -20 -43 -19 -18 -22 -16
-107 50 -56 42 -140 93 -228 136 -262 128 -302 158 -354 264 -27 54 -31 73
-31 145 0 122 29 209 90 274 27 29 77 66 114 85 56 28 79 34 154 39 76 4 94 2
129 -16 58 -30 112 -84 119 -120 7 -32 49 -80 61 -69 3 4 -3 17 -15 30 -12 13
-22 31 -22 41 0 45 -78 121 -149 145 -42 14 -161 14 -220 0 -46 -10 -162 -80
-198 -120 -12 -13 -34 -51 -49 -84 -24 -52 -29 -76 -32 -177 -5 -137 4 -169
74 -258 49 -62 92 -90 319 -202 133 -66 303 -180 305 -204 0 -16 -121 -144
-136 -144 -7 0 -26 -17 -43 -38 l-30 -37 -1 50 c0 78 -34 98 -82 48 -33 -35
-48 -73 -48 -122 0 -21 -7 -58 -15 -81 -8 -23 -15 -54 -15 -67 0 -22 3 -24 33
-18 17 4 55 15 84 25 28 10 69 21 91 25 21 3 54 15 72 26 l33 20 -5 69 c-3 39
-11 76 -17 84 -9 11 0 26 47 76 51 55 61 61 78 52 25 -13 121 -121 234 -262
86 -108 99 -122 111 -115 3 3 9 60 12 127 8 154 30 345 51 423 8 33 20 100 26
149 6 49 15 96 20 105 5 9 39 46 77 82 37 36 113 114 168 175 89 97 103 109
130 106 84 -7 278 70 432 172 l53 35 0 -755 c0 -825 2 -794 -58 -858 -15 -16
-45 -37 -67 -47 -38 -18 -88 -19 -1028 -19 -1081 0 -1026 -3 -1091 58 -16 15
-37 45 -47 67 -18 38 -19 86 -19 978 0 1026 -3 976 58 1041 15 16 45 37 67 47
38 18 87 19 1030 19 943 0 992 -1 1030 -19z m-929 -380 c63 -29 107 -89 150
-204 46 -126 57 -259 30 -380 -9 -40 -21 -118 -25 -173 -5 -54 -19 -140 -30
-191 -11 -50 -23 -125 -26 -165 -4 -40 -9 -89 -12 -108 l-6 -35 -9 30 c-4 17
-5 77 -2 134 6 93 5 105 -11 117 -17 13 -17 15 -1 58 24 62 19 90 -17 94 -22
3 -27 7 -21 20 33 77 63 177 55 185 -6 6 0 31 15 65 30 68 32 102 4 102 -26 0
-25 3 6 50 29 43 25 67 -7 50 -21 -12 -26 -1 -7 18 9 9 9 15 1 23 -9 9 -18 8
-37 -5 -14 -9 -27 -16 -30 -16 -2 0 9 27 27 60 23 46 28 63 19 72 -9 9 -18 9
-37 0 -37 -17 -38 -16 -19 18 21 34 12 50 -16 32 -22 -14 -25 -9 -10 18 7 12
7 28 0 45 -10 26 -11 27 -35 11 -23 -15 -25 -15 -25 1 1 10 7 29 15 43 34 59
5 54 -37 -7 -32 -47 -33 -47 -36 -20 -6 54 -42 16 -42 -46 0 -23 -8 -41 -26
-58 l-26 -24 7 30 c13 54 59 129 94 152 41 28 73 29 127 4z m-129 -221 c4 0
15 7 25 17 25 22 23 13 -7 -27 -38 -51 -15 -64 33 -17 33 32 39 35 48 20 8
-14 15 -14 41 -5 36 12 37 17 -10 -78 -29 -59 -23 -85 13 -62 17 10 24 9 40
-6 18 -17 18 -20 4 -40 -8 -12 -22 -22 -30 -22 -9 0 -14 -10 -14 -28 0 -24
-53 -122 -66 -122 -2 0 9 27 26 60 37 74 40 104 8 97 -13 -2 -31 -8 -40 -12
-16 -6 -17 -1 -15 47 2 52 2 53 -26 50 -25 -3 -27 0 -21 22 4 16 1 27 -9 33
-8 4 -16 17 -18 28 -5 26 -50 31 -83 9 -30 -19 -30 -18 -15 24 10 30 36 38 66
19 7 -5 17 2 25 15 l13 23 3 -22 c2 -13 6 -23 9 -23z m-463 -22 c-9 -18 -30
-52 -45 -75 -16 -23 -29 -44 -29 -47 0 -14 26 -4 38 15 10 16 16 18 27 9 10
-9 17 -5 32 15 41 58 53 67 27 20 -15 -27 -33 -59 -41 -70 -17 -25 -17 -35 2
-35 8 0 32 25 52 57 27 40 39 51 41 39 3 -16 6 -15 28 5 13 12 24 19 24 15 0
-5 8 -2 17 5 15 12 16 12 9 -6 -16 -43 -19 -77 -6 -85 9 -6 9 -13 1 -28 -16
-30 -14 -36 16 -50 26 -11 30 -9 81 40 l54 53 -21 -42 c-20 -41 -28 -83 -15
-83 4 0 24 20 46 45 22 25 44 45 50 45 6 0 7 -22 3 -61 -7 -60 -7 -62 15 -56
17 4 20 2 15 -11 -4 -9 -9 -32 -12 -49 -4 -25 -2 -33 9 -33 9 0 21 7 28 16 8
8 21 19 30 24 15 8 16 4 12 -42 -5 -48 -4 -51 16 -46 21 6 21 5 6 -31 -26 -59
-28 -71 -11 -71 8 0 25 16 37 36 32 50 45 29 19 -30 -23 -52 -19 -67 12 -48
18 12 20 11 17 -10 -2 -18 2 -24 22 -26 38 -5 42 -15 25 -56 -20 -47 -39 -54
-75 -27 -41 30 -76 27 -112 -9 -16 -17 -39 -35 -51 -42 -16 -8 -14 -2 11 30
18 22 32 43 32 46 0 3 -12 6 -26 6 -20 0 -25 4 -20 16 11 29 -5 34 -45 14
l-40 -21 7 27 c6 25 5 26 -20 22 -30 -6 -30 -5 -14 22 23 37 -4 42 -52 10 -61
-40 -67 -38 -31 12 32 43 32 63 0 55 -15 -4 -17 -2 -9 13 28 53 -3 53 -55 0
-53 -54 -62 -50 -20 9 19 26 35 51 35 55 0 16 -33 3 -65 -25 -41 -36 -45 -31
-10 15 24 32 33 66 18 66 -5 -1 -19 -7 -33 -15 -35 -20 -46 -18 -26 4 23 25
13 45 -15 31 -22 -12 -24 -7 -8 22 14 27 -3 47 -25 29 -8 -7 -23 -11 -32 -9
-15 3 -13 7 10 34 48 58 32 70 -32 24 -23 -16 -44 -30 -47 -30 -3 0 8 20 25
44 36 54 37 60 6 52 -24 -6 -25 -4 -23 36 2 40 0 43 -26 46 -26 3 -26 5 -12
24 11 16 12 25 3 35 -7 9 -7 17 2 28 19 23 27 18 22 -16 -4 -28 -3 -30 15 -20
18 9 20 7 15 -14 -7 -40 14 -29 60 30 23 30 44 55 46 55 1 0 -5 -15 -14 -32z
m1259 -32 c-10 -13 -20 -19 -22 -13 -2 5 4 16 15 24 26 19 27 16 7 -11z m-838
-3 c-19 -45 -18 -53 6 -53 17 0 20 -3 12 -11 -8 -8 -18 -6 -37 6 -19 12 -37
16 -63 12 -40 -7 -37 -3 22 37 47 31 71 34 60 9z m793 -25 c-3 -7 -15 -15 -28
-16 -21 -3 -22 -2 -11 12 16 19 44 21 39 4z m-1358 -51 c0 -1 -20 -20 -45 -40
-25 -21 -45 -33 -45 -28 0 13 40 51 65 61 24 11 25 11 25 7z m568 -20 c7 -5
28 -7 48 -4 28 5 35 3 30 -8 -2 -7 -8 -29 -11 -48 -6 -30 -4 -36 14 -42 11 -3
29 -1 41 5 26 14 27 -4 1 -43 l-18 -28 -6 23 c-6 22 -7 22 -48 -17 -23 -22
-39 -32 -36 -23 3 9 9 33 13 54 6 35 5 37 -15 31 -21 -5 -22 -3 -16 32 8 51
-13 75 -52 60 -27 -10 -27 -10 -9 10 18 19 37 19 64 -2z m-587 -90 c-13 -12
-20 -15 -16 -7 14 26 28 41 33 35 3 -3 -5 -16 -17 -28z m833 -55 c-18 -44 -20
-46 -33 -37 -6 3 -11 23 -11 44 0 36 1 37 30 33 l29 -4 -15 -36z m-749 -52
c-3 -5 -11 -10 -16 -10 -6 0 -7 5 -4 10 3 6 11 10 16 10 6 0 7 -4 4 -10z m682
-27 c-3 -10 -5 -4 -5 12 0 17 2 24 5 18 2 -7 2 -21 0 -30z m-87 -333 c0 -5 -4
-10 -10 -10 -5 0 -10 5 -10 10 0 6 5 10 10 10 6 0 10 -4 10 -10z m-50 -85
l-30 -44 30 -18 c34 -20 36 -26 15 -43 -8 -7 -15 -21 -15 -33 0 -17 5 -19 36
-14 38 6 39 4 10 -65 l-12 -27 -83 83 -84 84 29 36 c16 20 38 39 49 42 11 3
29 18 40 34 14 21 23 26 32 18 10 -8 6 -20 -17 -53z m126 55 c14 0 24 -6 24
-14 0 -8 7 -17 16 -20 13 -5 14 -21 8 -115 -6 -90 -4 -114 10 -141 17 -34 24
-210 9 -210 -5 1 -24 21 -43 46 -19 25 -44 57 -55 71 l-20 25 20 14 c19 14 20
13 23 -11 2 -18 9 -25 20 -23 12 2 17 14 17 42 0 47 -16 55 -51 27 -46 -36
-56 -28 -34 29 20 51 25 91 14 103 -3 3 -17 2 -30 -3 -27 -11 -32 1 -9 20 19
16 20 50 1 50 -16 0 -29 27 -20 43 26 48 51 76 62 72 8 -3 25 -5 38 -5z m-539
-346 c-2 -68 -2 -69 -50 -113 -51 -48 -63 -49 -47 -7 5 15 10 45 10 66 0 50
15 88 48 123 34 36 43 21 39 -69z m149 -28 c9 -61 -10 -82 -85 -96 -31 -6 -71
-17 -88 -25 -18 -8 -33 -12 -33 -10 0 3 21 27 48 53 26 27 67 72 91 101 49 60
56 57 67 -23z"/>
<path d="M490 2055 c-13 -14 -21 -28 -17 -31 7 -7 66 36 66 49 2 16 -27 6 -49
-18z"/>
<path d="M1520 1960 c0 -5 9 -10 20 -10 11 0 20 5 20 10 0 6 -9 10 -20 10 -11
0 -20 -4 -20 -10z"/>
</g>
</svg>
